<?xml version="1.0" encoding="utf-8"?>
<!DOCTYPE svg PUBLIC "-//W3C//DTD SVG 1.1//EN" "http://www.w3.org/Graphics/SVG/1.1/DTD/svg11.dtd">
<svg version="1.1" id="Layer_1" xmlns="http://www.w3.org/2000/svg" xmlns:xlink="http://www.w3.org/1999/xlink" x="0px" y="0px"
	 width="100px" height="100px" viewBox="0 0 100 100" enable-background="new 0 0 100 100" xml:space="preserve">
<path fill="#AA3C3B" d="M50,0C22.4,0,0,22.4,0,50s22.4,50,50,50s50-22.4,50-50S77.6,0,50,0z M19.167,72.6V34.767c1-0.3,2.067-0.667,3.1-0.933V63.8
	c0,0.767,0.633,1.399,1.434,1.433c7.8,0,15.233,3.133,20.733,8.667C36.367,70.733,27.533,70.267,19.167,72.6z M48.633,74.333
	C42.8,67.267,34.267,63,25.1,62.533l0.1-36.867c9.466,0.7,18.1,5.667,23.433,13.5V74.333z M51.433,74.333V39.2
	c5.3-7.9,14-12.9,23.5-13.5v36.867C65.767,63,57.267,67.3,51.433,74.333z M80.833,72.6c-8.333-2.267-17.167-1.8-25.2,1.367v-0.034
	c5.434-5.533,12.9-8.667,20.667-8.667c0.767,0,1.399-0.633,1.433-1.433V33.9c1.1,0.233,2.1,0.6,3.1,0.934V72.6z"/>
</svg>