<?xml version="1.0" encoding="utf-8"?>
<!-- Generator: Adobe Illustrator 16.0.0, SVG Export Plug-In . SVG Version: 6.00 Build 0)  -->
<!DOCTYPE svg PUBLIC "-//W3C//DTD SVG 1.1//EN" "http://www.w3.org/Graphics/SVG/1.1/DTD/svg11.dtd">
<svg version="1.1" id="Layer_1" xmlns="http://www.w3.org/2000/svg" xmlns:xlink="http://www.w3.org/1999/xlink" x="0px" y="0px"
	 width="100px" height="100px" viewBox="0 0 100 100" enable-background="new 0 0 100 100" xml:space="preserve">
<g>
	<path fill="#AA3C3B" d="M50,0C22.4,0,0,22.4,0,50s22.4,50,50,50s50-22.4,50-50S77.6,0,50,0z M65.2,47.2C62,50.5,57.6,53,53.3,53.9
		C53.1,55.5,53,60,53,65.6c0,8.7,0.5,11.9,0.7,12.4c0.4,0.6,2.5,1.5,5.7,1.8h0.1c1.7,0.2,5,0.5,5,3.1c0,2.5-2.2,2.5-3,2.5
		c-0.2,0-0.3,0-0.5,0s-0.4,0-0.6,0H39.6c-0.2,0-0.4,0-0.6,0s-0.4,0-0.5,0c-0.7,0-1.3,0-1.9-0.4c-0.5-0.3-1.1-0.9-1.1-2.1
		c0-2.6,3.2-2.9,5-3.1h0.1c3.2-0.3,5.4-1.2,5.7-1.8c0.2-0.5,0.7-3.7,0.8-12.4c0.1-5.4,0-10-0.2-11.6c-9.1-1.8-18.2-10.4-17.1-19.8
		c0.2-2.1,1.5-6.6,3.1-11.1c0.8-2.3,1.5-4.2,2.2-5.6c1-2.2,1.7-3,2.6-3h24.7c0.9,0,1.6,0.8,2.6,3c0.6,1.4,1.4,3.3,2.2,5.6
		C68.8,27.6,70,32.2,70.3,34.2C70.7,38.7,68.9,43.3,65.2,47.2z"/>
	<path fill="#AA3C3B" d="M62.1,16.7H37.9c-1.4,1.7-5.5,13.8-6,17.8c-0.5,3.9,1.1,7.9,4.5,11.4c3.1,3.2,7.4,5.5,11.6,6.2
		c0.4,0.1,0.7,0.3,0.8,0.6c0.1,0.2,0.3,0.5,0.3,4.5c0.1,2.4,0.1,5.4,0,8.2C49,77.5,48.3,78.7,48,79.1c-1.1,2-5.1,2.7-7.4,2.9h-0.1
		c-0.9,0.1-3.1,0.3-3.1,1c0,0.2,0,0.2,0,0.3c0.1,0,0.3,0.1,0.8,0.1c0.2,0,0.3,0,0.5,0c0.2,0,0.4,0,0.6,0h10.5h10.4
		c0.2,0,0.4,0,0.601,0c0.2,0,0.3,0,0.5,0c0.5,0,0.7,0,0.8-0.1c0,0,0-0.101,0-0.3c0-0.7-2.1-0.9-3.1-1h-0.1c-2.3-0.2-6.2-0.9-7.4-2.9
		c-0.6-1.1-1-5.7-1-13.7c0-0.5,0-11.6,0.5-12.8c0.2-0.3,0.5-0.6,0.8-0.6C60.5,50.5,69,42.7,68,34.5C67.6,30.5,63.5,18.4,62.1,16.7z
		 M64.7,38.7c-0.2,2-1.3,3.6-2.8,5.3c-2.5,3-5.8,5-9.5,5.3c-0.5,0-1.4,0.1-2.4,0.1s-2,0-2.6-0.1c-3.6-0.3-6.9-2.2-9.4-5.2
		c-1.5-1.8-2.7-3.4-2.9-5.5c0-0.2-0.1-0.8,0.5-0.8c7.1,0,21.4,0,28.4,0C64.8,38,64.7,38.6,64.7,38.7z"/>
</g>
</svg>
