<?xml version="1.0" encoding="utf-8"?>
<!DOCTYPE svg PUBLIC "-//W3C//DTD SVG 1.1//EN" "http://www.w3.org/Graphics/SVG/1.1/DTD/svg11.dtd">
<svg version="1.1" id="Layer_1" xmlns="http://www.w3.org/2000/svg" xmlns:xlink="http://www.w3.org/1999/xlink" x="0px" y="0px"
	 width="100px" height="100px" viewBox="0 0 100 100" enable-background="new 0 0 100 100" xml:space="preserve">
<g>
	<path fill="#AA3C3B" d="M50,0C22.4,0,0,22.4,0,50s22.4,50,50,50s50-22.4,50-50S77.6,0,50,0z M34.1,49.367l0.267-1.5
		c-3.467-1.767-5.9-5.967-5.9-10.934c0-6.5,4.233-11.8,9.466-11.8c4.1,0,7.6,3.267,8.9,7.867c-5.233,1.667-9.1,7.333-9.1,14.067
		c0,4.633,1.833,8.9,4.833,11.633c-0.467,0.233-1.034,0.5-1.467,0.7c-2.434,1.133-5.767,2.733-8.2,5.867H20.533
		C20.533,52.667,31.633,52.667,34.1,49.367z M50.133,75.433L50.133,75.433H49.9H32.6C32.6,62.8,43.7,62.8,46.167,59.5l0.267-1.5
		c-3.466-1.767-5.9-5.967-5.9-10.933c0-6.5,4.233-11.8,9.467-11.8s9.467,5.267,9.467,11.8c0,4.9-2.4,9.1-5.8,10.866l0.333,1.7
		c2.7,3.133,13.433,3.333,13.433,15.767h-17.3V75.433z M67.1,65.3L67.1,65.3c-2.434-3.167-5.8-4.733-8.2-5.867
		c-0.467-0.233-1-0.466-1.467-0.7c3-2.7,4.833-7,4.833-11.633c0-6.733-3.867-12.434-9.1-14.067c1.3-4.566,4.8-7.867,8.9-7.867
		c5.233,0,9.466,5.267,9.466,11.8c0,4.9-2.4,9.1-5.8,10.867l0.333,1.7C68.767,52.667,79.5,52.867,79.5,65.3H67.1L67.1,65.3z"/>
</g>
</svg>