<?xml version="1.0" encoding="utf-8"?>
<!DOCTYPE svg PUBLIC "-//W3C//DTD SVG 1.1//EN" "http://www.w3.org/Graphics/SVG/1.1/DTD/svg11.dtd">
<svg version="1.1" id="Layer_1" xmlns="http://www.w3.org/2000/svg" xmlns:xlink="http://www.w3.org/1999/xlink" x="0px" y="0px"
	 width="100px" height="100px" viewBox="0 0 100 100" enable-background="new 0 0 100 100" xml:space="preserve">
<g>
	<path fill="#AA3C3B" d="M50,0C22.4,0,0,22.4,0,50s22.4,50,50,50s50-22.4,50-50S77.6,0,50,0z M41.567,78.267c-3.867,0-7-3.133-7-7s3.133-7,7-7
		c3.866,0,7,3.133,7,7S45.433,78.267,41.567,78.267z M64,78.267c-0.467,0.034-0.933,0.034-1.4,0c-3.9-0.367-6.733-3.833-6.333-7.733
		C56.633,66.633,60.1,63.8,64,64.2c3.367,0.333,6,3,6.333,6.333C70.733,74.433,67.9,77.9,64,78.267z M78.833,39.233L73.8,59.367
		c-0.233,0.9-1.034,1.566-1.967,1.566H36.267c-0.967,0-1.8-0.667-1.967-1.633l-6.333-29.034H21.1v-4.1h8.5
		c0.933,0,1.767,0.667,1.967,1.567l1.966,8.967h5.8v-0.133l0,0c0-8.233,6.667-14.9,14.9-14.9s14.9,6.667,14.9,14.9V36.7H76.9
		c0.633,0,1.2,0.3,1.567,0.8S79,38.633,78.833,39.233z"/>
	<path fill="#AA3C3B" d="M54.233,25.767c-5.967,0-10.8,4.833-10.8,10.8c0,5.966,4.833,10.8,10.8,10.8C60.2,47.333,65,42.5,65.033,36.567
		C65.033,30.6,60.2,25.767,54.233,25.767z M53.967,41.133c-0.367,0.367-0.9,0.567-1.434,0.533c-0.533,0-1.066-0.233-1.433-0.6
		l-5.167-5.233l2.934-2.867l3.733,3.8l7.133-6.733l2.8,3L53.967,41.133z"/>
</g>
</svg>